<?xml version="1.0" encoding="UTF-8" standalone="no"?>
<svg
   xmlns:dc="http://purl.org/dc/elements/1.1/"
   xmlns:cc="http://creativecommons.org/ns#"
   xmlns:rdf="http://www.w3.org/1999/02/22-rdf-syntax-ns#"
   xmlns:svg="http://www.w3.org/2000/svg"
   xmlns="http://www.w3.org/2000/svg"
   xmlns:sodipodi="http://sodipodi.sourceforge.net/DTD/sodipodi-0.dtd"
   xmlns:inkscape="http://www.inkscape.org/namespaces/inkscape"
   sodipodi:docname="logo.svg"
   inkscape:version="1.0 (1.0+r73+1)"
   id="svg8"
   version="1.1"
   viewBox="0 0 7.9374997 7.9375002"
   height="30"
   width="30">
  <defs
     id="defs2" />
  <sodipodi:namedview
     inkscape:guide-bbox="true"
     showguides="true"
     units="px"
     inkscape:window-maximized="0"
     inkscape:window-y="858"
     inkscape:window-x="2025"
     inkscape:window-height="881"
     inkscape:window-width="1347"
     showgrid="false"
     inkscape:document-rotation="0"
     inkscape:current-layer="layer1"
     inkscape:document-units="mm"
     inkscape:cy="45.850166"
     inkscape:cx="28.155025"
     inkscape:zoom="5.6"
     inkscape:pageshadow="2"
     inkscape:pageopacity="0.0"
     borderopacity="1.0"
     bordercolor="#666666"
     pagecolor="#ffffff"
     id="base" />
  <metadata
     id="metadata5">
    <rdf:RDF>
      <cc:Work
         rdf:about="">
        <dc:format>image/svg+xml</dc:format>
        <dc:type
           rdf:resource="http://purl.org/dc/dcmitype/StillImage" />
        <dc:title />
      </cc:Work>
    </rdf:RDF>
  </metadata>
  <g
     id="layer1"
     inkscape:groupmode="layer"
     inkscape:label="Layer 1">
    <g
       transform="matrix(0.1171875,0,0,0.1171875,55.563215,100.60262)"
       id="g2882">
      <g
         transform="matrix(0.41218591,0,0,0.41218591,-337.56115,-876.02068)"
         style="fill:#ffffff;stroke:#ffffff;stroke-width:10;stroke-linecap:round;stroke-linejoin:round;stroke-miterlimit:4;stroke-dasharray:none"
         id="g2756">
        <path
           style="opacity:1;fill:#ffffff;fill-opacity:1;stroke:#ffffff;stroke-width:10;stroke-linecap:round;stroke-linejoin:round;stroke-miterlimit:4;stroke-dasharray:none;stroke-opacity:1"
           d="m -297.96941,95.904712 c 0,0 -8.95504,3.056825 -12.18333,6.292628 -4.05474,4.06413 -7.86805,15.32045 -7.86805,15.32045 l -4.41271,17.13075 c 0,0 2.63829,-4.06257 4.36114,-5.73622 4.65267,-4.51978 15.82565,-11.32386 15.82565,-11.32386 l 7.24814,-4.50933 0.0324,-18.189037 z"
           id="path2634"
           sodipodi:nodetypes="caccacccc" />
        <g
           style="fill:#ffffff;stroke:#ffffff;stroke-width:8.55819;stroke-linecap:round;stroke-linejoin:round;stroke-miterlimit:4;stroke-dasharray:none"
           transform="matrix(0.53244208,1.0401105,-1.0401105,0.53244208,42.688854,229.53645)"
           id="g2642">
          <path
             id="path2636"
             style="fill:#ffffff;fill-opacity:0.996078;stroke:#ffffff;stroke-width:8.55819;stroke-linecap:round;stroke-linejoin:round;stroke-miterlimit:4;stroke-dasharray:none;stroke-opacity:1"
             d="m -158.98588,131.06476 v 0.81655 h -0.18016 v 24.86192 h 0.18016 v 0.81655 h 4.39766 v -0.81655 h 0.18048 v -24.86192 h -0.18048 v -0.81655 z" />
          <path
             id="path2638"
             style="fill:#ffffff;fill-opacity:1;stroke:#ffffff;stroke-width:8.55819;stroke-linecap:round;stroke-linejoin:round;stroke-miterlimit:4;stroke-dasharray:none;stroke-opacity:1"
             d="m -159.20459,131.70647 v 26.20236 h 4.83508 v -26.20236 z m 2.42084,1.26619 2.33153,1.55822 -2.33153,1.5579 -2.33153,-1.5579 z m 0,3.52941 2.33153,1.55821 -2.33153,1.55791 -2.33153,-1.55791 z m 0,3.52941 2.33153,1.55821 -2.33153,1.55822 -2.33153,-1.55822 z m 0,3.52941 2.33153,1.55822 -2.33153,1.55822 -2.33153,-1.55822 z m 0,3.52973 2.33153,1.5579 -2.33153,1.55822 -2.33153,-1.55822 z m 0,3.5294 2.33153,1.55791 -2.33153,1.55822 -2.33153,-1.55822 z m 0,3.52941 2.33153,1.55822 -2.33153,1.55791 -2.33153,-1.55791 z" />
          <path
             id="path2640"
             style="fill:#ffffff;fill-opacity:1;stroke:#ffffff;stroke-width:8.55819;stroke-linecap:round;stroke-linejoin:round;stroke-miterlimit:4;stroke-dasharray:none;stroke-opacity:1"
             d="m -159.47185,157.90883 h 5.36748 c 0,0 0.12858,26.83377 0.007,40.24438 -0.10437,11.51263 0.24912,23.07907 -0.63202,34.50482 -0.16548,2.14579 -0.29529,4.37161 -0.87017,6.3425 -0.34203,1.17255 -0.75563,2.48493 -1.48758,3.10123 -0.69908,0.58861 -2.38453,0.24214 -2.38453,0.24214 z"
             sodipodi:nodetypes="ccaaaacc" />
        </g>
        <path
           sodipodi:nodetypes="caaaacccc"
           id="path2644"
           d="m -296.34544,108.83829 c 0,0 -6.71806,8.87992 -8.16101,14.12169 -1.5303,5.5591 -1.63715,11.70488 -0.2289,17.29615 0.59428,2.35953 1.13986,5.99797 3.5425,6.38245 2.03263,0.32525 3.12924,-2.68834 4.5322,-4.19467 1.87384,-2.0119 5.15879,-6.43571 5.15879,-6.43571 l 4.8466,-7.62627 -5.82685,-17.23051 z"
           style="opacity:1;fill:#ffffff;fill-opacity:1;stroke:#ffffff;stroke-width:10;stroke-linecap:round;stroke-linejoin:round;stroke-miterlimit:4;stroke-dasharray:none;stroke-opacity:1" />
        <circle
           style="opacity:1;fill:#ffffff;fill-opacity:0.996078;stroke:#ffffff;stroke-width:10;stroke-linecap:round;stroke-linejoin:round;stroke-miterlimit:4;stroke-dasharray:none"
           id="circle2646"
           cx="-245.14919"
           cy="105.75557"
           r="52.055592" />
        <ellipse
           style="opacity:1;fill:#ffffff;fill-opacity:0.996078;stroke:#ffffff;stroke-width:10.0202;stroke-linecap:round;stroke-linejoin:round;stroke-miterlimit:4;stroke-dasharray:none"
           id="ellipse2648"
           cx="-195.23184"
           cy="185.54855"
           rx="14.258544"
           ry="17.118944"
           transform="matrix(0.94806586,0.31807409,-0.40176231,0.91574398,0,0)" />
        <circle
           style="fill:#ffffff;fill-opacity:0.996078;stroke:#ffffff;stroke-width:10;stroke-linecap:round;stroke-linejoin:round;stroke-miterlimit:4;stroke-dasharray:none"
           id="circle2650"
           cx="-224.88632"
           cy="159.37636"
           r="1.8400347"
           transform="rotate(11.8429)" />
        <ellipse
           transform="matrix(-0.94806586,0.31807409,0.40176231,0.91574398,0,0)"
           ry="17.118944"
           rx="14.258544"
           cy="29.416786"
           cx="254.27579"
           id="ellipse2652"
           style="opacity:1;fill:#ffffff;fill-opacity:0.996078;stroke:#ffffff;stroke-width:10.0202;stroke-linecap:round;stroke-linejoin:round;stroke-miterlimit:4;stroke-dasharray:none" />
        <circle
           transform="rotate(11.8429)"
           r="1.8400347"
           cy="155.92105"
           cx="-208.40826"
           id="circle2654"
           style="fill:#ffffff;fill-opacity:0.996078;stroke:#ffffff;stroke-width:10;stroke-linecap:round;stroke-linejoin:round;stroke-miterlimit:4;stroke-dasharray:none" />
        <rect
           style="opacity:1;fill:#ffffff;fill-opacity:1;stroke:#ffffff;stroke-width:10;stroke-linecap:round;stroke-linejoin:round;stroke-miterlimit:4;stroke-dasharray:none;stroke-opacity:1"
           id="rect2656"
           width="36.409893"
           height="15.527458"
           x="-244.54706"
           y="184.88315" />
        <rect
           y="184.88315"
           x="-280.95694"
           height="15.527458"
           width="36.409893"
           id="rect2658"
           style="opacity:1;fill:#ffffff;fill-opacity:1;stroke:#ffffff;stroke-width:10;stroke-linecap:round;stroke-linejoin:round;stroke-miterlimit:4;stroke-dasharray:none;stroke-opacity:1" />
        <path
           sodipodi:nodetypes="caaccaaccc"
           id="path2660"
           d="m -204.36298,150.19883 c 0,0 4.00111,7.47992 5.31743,11.48948 1.21576,3.70326 2.03759,7.57138 2.3341,11.4578 0.15491,2.03041 -0.29721,6.1017 -0.29721,6.1017 l -95.72899,-2.27722 c 0,0 -1.4234,-4.54088 -1.39557,-6.88112 0.0332,-2.79249 0.98797,-5.51594 1.86009,-8.16896 1.58615,-4.82515 6.09216,-13.96664 6.09216,-13.96664 l 40.77963,-2.7352 z"
           style="opacity:1;fill:#ffffff;fill-opacity:1;stroke:#ffffff;stroke-width:10;stroke-linecap:round;stroke-linejoin:round;stroke-miterlimit:4;stroke-dasharray:none;stroke-opacity:1" />
        <path
           sodipodi:nodetypes="csccaccacac"
           id="path2662"
           d="m -285.35513,186.07978 c 0,0 19.60259,4.77222 40.60043,5.10736 16.81665,0.26841 37.32649,-4.70834 37.32649,-4.70834 l -3.90236,-13.7803 c 0,0 -0.29595,-4.2409 -0.84202,-6.28175 -0.62669,-2.34222 -2.76297,-6.72862 -2.76297,-6.72862 l -61.94375,-1.02941 c 0,0 -1.68146,4.51392 -2.19294,6.85922 -0.46282,2.12214 -0.78014,6.4692 -0.78014,6.4692 0,0 -4.02337,5.6341 -5.03738,8.88374 -0.51926,1.66408 -0.46536,5.2089 -0.46536,5.2089 z"
           style="opacity:1;fill:#ffffff;fill-opacity:1;stroke:#ffffff;stroke-width:10;stroke-linecap:round;stroke-linejoin:round;stroke-miterlimit:4;stroke-dasharray:none;stroke-opacity:1" />
        <path
           sodipodi:nodetypes="caaaccaaaaacc"
           id="path2664"
           d="m -278.81082,176.42455 c 0,0 9.11371,0.96111 13.68896,1.14334 6.65363,0.265 13.32024,0.10983 19.9766,-0.0742 8.39365,-0.23208 16.7806,-0.71405 25.1571,-1.29854 3.3026,-0.23044 9.89367,-0.87045 9.89367,-0.87045 l 0.44151,6.07134 c 0,0 -9.38621,1.09326 -14.08789,1.5579 -3.87609,0.38305 -7.75357,0.76901 -11.64084,1.01382 -3.12951,0.1971 -6.26443,0.33569 -9.39999,0.36605 -4.94939,0.0479 -9.89943,-0.11727 -14.84601,-0.29043 -6.97489,-0.24418 -14.04761,0.21135 -20.91087,-1.05535 -1.00247,-0.18502 -2.90809,-0.94629 -2.90809,-0.94629 z"
           style="opacity:1;fill:#ffffff;fill-opacity:1;stroke:#ffffff;stroke-width:10;stroke-linecap:round;stroke-linejoin:round;stroke-miterlimit:4;stroke-dasharray:none;stroke-opacity:1" />
        <path
           sodipodi:nodetypes="ccassccc"
           id="path2666"
           d="m -244.0345,166.34868 0.24596,5.79787 c 0,0 5.10149,1.02193 7.68518,1.29011 4.69964,0.48782 10.92636,1.02652 14.163,0.57445 2.78079,-0.38841 6.04988,-1.63794 7.21964,-2.37647 0.57662,-0.36405 -0.15519,-5.57141 -0.15519,-5.57141 l -26.77433,-4.52538 z"
           style="opacity:1;fill:#ffffff;fill-opacity:1;stroke:#ffffff;stroke-width:10;stroke-linecap:round;stroke-linejoin:round;stroke-miterlimit:4;stroke-dasharray:none;stroke-opacity:1" />
        <path
           style="opacity:1;fill:#ffffff;fill-opacity:1;stroke:#ffffff;stroke-width:10;stroke-linecap:round;stroke-linejoin:round;stroke-miterlimit:4;stroke-dasharray:none;stroke-opacity:1"
           d="m -246.92644,166.34868 -0.24596,5.79787 c 0,0 -5.10148,1.02193 -7.68517,1.29011 -4.69963,0.48782 -10.92636,1.02652 -14.163,0.57445 -2.78078,-0.38841 -6.04987,-1.63794 -7.21964,-2.37647 -0.57662,-0.36405 0.1552,-5.57141 0.1552,-5.57141 l 26.77433,-4.52538 z"
           id="path2668"
           sodipodi:nodetypes="ccassccc" />
        <path
           d="m -282.01833,141.5559 c 0,0 -1.18941,0.47131 -2.91466,1.82838 -1.4998,1.17978 -3.70446,3.18733 -3.42307,4.58786 1.48743,2.32997 2.69499,3.21263 4.26541,5.82026 3.01215,4.26869 5.26787,9.07286 8.56223,13.12774 1.64297,2.02732 5.48185,6.11587 7.30265,5.27259 6.4318,-3.8804 14.65434,-5.8701 23.13189,-5.82208 8.47757,-0.048 16.70009,1.94168 23.1319,5.82208 1.8208,0.84328 5.65969,-3.24529 7.30265,-5.27259 3.29437,-4.05488 5.55007,-8.85905 8.56222,-13.12774 1.57043,-2.60763 2.77798,-3.49029 4.26542,-5.82026 0.28141,-1.40053 -1.92327,-3.40809 -3.42308,-4.58786 -1.72525,-1.35707 -2.91466,-1.82838 -2.91466,-1.82838 l -36.92445,0.8701 z"
           style="opacity:1;fill:#ffffff;fill-opacity:1;stroke:#ffffff;stroke-width:10;stroke-linecap:round;stroke-linejoin:round;stroke-miterlimit:4;stroke-dasharray:none;stroke-opacity:1"
           id="path2670" />
        <circle
           r="1.4062673"
           cy="168.6562"
           cx="-241.03641"
           id="circle2672"
           style="opacity:1;fill:#ffffff;fill-opacity:0.996078;stroke:#ffffff;stroke-width:10;stroke-linecap:round;stroke-linejoin:round;stroke-miterlimit:4;stroke-dasharray:none" />
        <path
           sodipodi:nodetypes="cscccccccccsccc"
           id="path2674"
           style="fill:#ffffff;fill-opacity:1;stroke:#ffffff;stroke-width:10;stroke-linecap:round;stroke-linejoin:round;stroke-miterlimit:4;stroke-dasharray:none;stroke-opacity:1"
           d="m -279.35229,142.666 c 0,0 -1.97345,0.20413 -3.57413,1.46321 -1.39152,1.0946 -3.51563,2.52526 -3.25455,3.82466 1.38004,2.16172 3.44895,3.64576 4.90598,6.06512 2.79466,3.96048 4.47641,8.47708 7.53291,12.23918 1.33903,1.91124 3.91862,4.96224 5.60794,4.17985 5.96743,-3.60023 14.93251,-5.98069 22.79795,-5.93614 7.86547,-0.0445 16.764,1.67111 23.38619,5.85453 1.68933,0.7824 3.78312,-2.01047 5.30746,-3.89141 3.0565,-3.7621 5.2579,-8.13045 8.05258,-12.09094 1.45703,-2.41935 3.25293,-5.00671 4.63298,-7.16844 0.26108,-1.29939 -2.28327,-2.50407 -3.6748,-3.59865 -1.60068,-1.25909 -3.20368,-0.94097 -3.20368,-0.94097 l -34.25842,0.80728 z" />
        <path
           sodipodi:nodetypes="caaaaac"
           id="path2676"
           d="m -297.2397,114.1737 c 0,0 -2.74766,7.27036 -3.61732,11.04586 -0.87453,3.79663 -2.99686,7.9472 -1.58833,11.57972 0.23925,0.61699 0.86398,1.29741 1.5252,1.27082 1.17306,-0.0472 1.95553,-1.43304 2.51602,-2.46461 1.1407,-2.09937 0.41162,-4.86022 1.42206,-7.02529 1.05181,-2.2537 4.65429,-5.83156 4.65429,-5.83156"
           style="fill:#ffffff;stroke:#ffffff;stroke-width:10;stroke-linecap:round;stroke-linejoin:round;stroke-miterlimit:4;stroke-dasharray:none;stroke-opacity:1" />
        <path
           sodipodi:nodetypes="caaaaaaaaaaccasaaasaac"
           id="path2678"
           d="m -297.40858,106.17904 c 0,0 6.38374,5.28496 9.9057,7.4417 3.79064,2.32127 7.71079,4.61921 11.98025,5.85565 3.36212,0.97368 6.94164,1.30215 10.43834,1.14388 4.77372,-0.21608 9.35728,-1.94677 14.05114,-2.84267 2.36457,-0.45132 4.70441,-1.14631 7.10817,-1.27572 2.13945,-0.11522 4.28946,0.1567 6.41189,0.44961 4.23749,0.58481 8.29451,2.37632 12.56614,2.60328 4.4654,0.23726 9.01,-0.23923 13.35061,-1.31405 3.27762,-0.81159 6.35969,-2.31539 9.3793,-3.82649 2.46716,-1.23463 5.33792,-2.13371 7.09621,-4.25965 0.64411,-0.7788 1.04499,-2.84618 1.04499,-2.84618 l 3.88587,3.3323 c 0,0 -3.32951,9.24743 -5.49928,13.64518 -3.84323,7.7896 -12.19888,21.89111 -13.25347,22.43615 -2.08556,1.07785 -11.19588,4.39837 -17.01127,5.86869 -9.01661,2.27971 -18.26715,5.35548 -27.53079,4.5301 -8.38749,-0.74732 -16.42235,-4.40123 -23.80916,-8.44396 -4.47768,-2.4506 -10.0404,-5.15089 -12.09068,-9.3974 -1.42016,-2.94142 -3.63289,-7.99235 -4.991,-12.15707 -1.62681,-4.98874 -3.45694,-10.04857 -3.75545,-15.28736 -0.10808,-1.89758 0.72248,-5.65599 0.72249,-5.65599 z"
           style="opacity:1;fill:#ffffff;fill-opacity:1;stroke:#ffffff;stroke-width:10;stroke-linecap:round;stroke-linejoin:round;stroke-miterlimit:4;stroke-dasharray:none;stroke-opacity:1" />
        <circle
           style="opacity:1;fill:#ffffff;fill-opacity:0.996078;stroke:#ffffff;stroke-width:10;stroke-linecap:round;stroke-linejoin:round;stroke-miterlimit:4;stroke-dasharray:none"
           id="circle2680"
           cx="-249.76353"
           cy="168.6562"
           r="1.4062673" />
        <g
           transform="matrix(1.168471,0,0,1.168471,4.1671365,-45.059572)"
           style="fill:#ffffff;stroke:#ffffff;stroke-width:8.55819;stroke-linecap:round;stroke-linejoin:round;stroke-miterlimit:4;stroke-dasharray:none"
           id="g2690">
          <path
             style="fill:#ffffff;stroke:#ffffff;stroke-width:8.55819;stroke-linecap:round;stroke-linejoin:round;stroke-miterlimit:4;stroke-dasharray:none;stroke-opacity:1"
             d="m -217.17342,182.95188 3.68232,0.47732 c 0,0 -1.47686,1.46981 -2.16615,2.25004 -0.75055,0.84958 -1.80364,1.56036 -2.14051,2.64278 -0.30859,0.99158 -0.38198,3.08772 -0.38198,3.08772"
             id="path2682"
             sodipodi:nodetypes="ccasc" />
          <path
             style="fill:#ffffff;stroke:#ffffff;stroke-width:8.55819;stroke-linecap:round;stroke-linejoin:round;stroke-miterlimit:4;stroke-dasharray:none;stroke-opacity:1"
             d="m -213.4911,183.4292 c 0,0 -1.08456,1.66101 -1.37688,2.59584 -0.3151,1.00769 -0.3356,2.09014 -0.37429,3.14525 -0.0231,0.62888 0.0852,1.88597 0.0852,1.88597"
             id="path2684"
             sodipodi:nodetypes="caac" />
          <path
             style="fill:#ffffff;stroke:#ffffff;stroke-width:8.55819;stroke-linecap:round;stroke-linejoin:round;stroke-miterlimit:4;stroke-dasharray:none;stroke-opacity:1"
             d="m -210.00035,182.91316 -3.49075,0.51604 c 0,0 1.90789,0.72749 2.61958,1.42042 0.62603,0.60953 1.00867,1.45018 1.31056,2.27012 0.41748,1.13388 0.65611,3.565 0.65611,3.565"
             id="path2686"
             sodipodi:nodetypes="ccaac" />
          <path
             style="fill:#ffffff;stroke:#ffffff;stroke-width:8.55819;stroke-linecap:round;stroke-linejoin:round;stroke-miterlimit:4;stroke-dasharray:none;stroke-opacity:1"
             d="m -213.4911,183.4292 c 0,0 1.05969,1.5628 1.28586,2.45999 0.24638,0.97736 0.0263,2.0157 0.037,3.02358 0.008,0.75515 0.0205,2.2655 0.0205,2.2655"
             id="path2688"
             sodipodi:nodetypes="caac" />
        </g>
        <path
           sodipodi:nodetypes="ccsc"
           id="path2692"
           d="m -288.59728,201.0176 47.25001,-0.16192 c 0,0 -7.87894,-5.13423 -23.86375,-5.06901 -16.98311,0.0693 -23.38626,5.23093 -23.38626,5.23093 z"
           style="fill:#ffffff;fill-opacity:1;stroke:#ffffff;stroke-width:10;stroke-linecap:round;stroke-linejoin:round;stroke-miterlimit:4;stroke-dasharray:none;stroke-opacity:1" />
        <path
           style="fill:#ffffff;fill-opacity:1;stroke:#ffffff;stroke-width:10;stroke-linecap:round;stroke-linejoin:round;stroke-miterlimit:4;stroke-dasharray:none;stroke-opacity:1"
           d="m -248.32091,200.75518 47.23659,1.13767 c 0,0 -7.74786,-4.77522 -23.7284,-5.15085 -16.97855,-0.39908 -23.50819,4.01309 -23.50819,4.01309 z"
           id="path2694"
           sodipodi:nodetypes="ccsc" />
        <g
           style="fill:#ffffff;stroke:#ffffff;stroke-width:8.55819;stroke-linecap:round;stroke-linejoin:round;stroke-miterlimit:4;stroke-dasharray:none;stroke-opacity:1"
           transform="matrix(1.168471,0,0,1.168471,4.1909675,-45.044978)"
           id="g2714">
          <g
             style="fill:#ffffff;stroke:#ffffff;stroke-width:8.55819;stroke-linecap:round;stroke-linejoin:round;stroke-miterlimit:4;stroke-dasharray:none;stroke-opacity:1"
             id="g2704">
            <path
               sodipodi:nodetypes="cac"
               id="path2696"
               d="m -244.32939,193.49001 c 0,0 1.38556,0.29059 2.08957,0.3354 0.85876,0.0546 2.58018,-0.0827 2.58018,-0.0827"
               style="fill:#ffffff;stroke:#ffffff;stroke-width:8.55819;stroke-linecap:round;stroke-linejoin:round;stroke-miterlimit:4;stroke-dasharray:none;stroke-opacity:1" />
            <path
               sodipodi:nodetypes="cac"
               id="path2698"
               d="m -243.04283,190.87885 c 0,0 1.88607,0.54253 2.85729,0.63714 1.64901,0.16064 4.96887,-0.12517 4.96887,-0.12517"
               style="fill:#ffffff;stroke:#ffffff;stroke-width:8.55819;stroke-linecap:round;stroke-linejoin:round;stroke-miterlimit:4;stroke-dasharray:none;stroke-opacity:1" />
            <path
               sodipodi:nodetypes="cac"
               id="path2700"
               d="m -216.58611,193.99879 c 0,0 3.10927,0.38887 4.67141,0.3765 1.86283,-0.0148 5.56278,-0.53716 5.56278,-0.53716"
               style="fill:#ffffff;stroke:#ffffff;stroke-width:8.55819;stroke-linecap:round;stroke-linejoin:round;stroke-miterlimit:4;stroke-dasharray:none;stroke-opacity:1" />
            <path
               sodipodi:nodetypes="caac"
               id="path2702"
               d="m -221.44721,192.4783 c 0.32873,-0.083 11.86091,-0.60572 17.79644,-0.60101 4.12313,0.003 8.24133,0.58889 12.36166,0.4371 2.7737,-0.10219 8.27734,-0.90574 8.27734,-0.90574"
               style="fill:#ffffff;stroke:#ffffff;stroke-width:8.55819;stroke-linecap:round;stroke-linejoin:round;stroke-miterlimit:4;stroke-dasharray:none;stroke-opacity:1" />
          </g>
          <g
             style="fill:#ffffff;stroke:#ffffff;stroke-width:8.55819;stroke-linecap:round;stroke-linejoin:round;stroke-miterlimit:4;stroke-dasharray:none;stroke-opacity:1"
             id="g2712">
            <path
               sodipodi:nodetypes="aassaacsa"
               id="path2706"
               d="m -227.71655,191.652 c 1.14821,1.18474 1.51937,2.95287 1.97413,4.5388 0.69587,2.42677 1.52523,6.75047 1.11868,7.49062 -0.45987,0.8372 -4.23882,1.85111 -4.23882,1.85111 -0.9826,0.34902 -0.84915,-3.49671 -1.01806,-5.28171 -0.1297,-1.37075 0.31632,-2.78889 0.007,-4.1306 -0.28369,-1.23118 -1.6646,-3.40523 -1.6646,-3.40523 0,0 0.71615,-2.48225 0.81911,-2.48225 0.10295,0 2.232,0.62434 3.00241,1.41926 z"
               style="fill:#ffffff;fill-opacity:1;stroke:#ffffff;stroke-width:8.55819;stroke-linecap:round;stroke-linejoin:round;stroke-miterlimit:4;stroke-dasharray:none;stroke-opacity:1" />
            <path
               sodipodi:nodetypes="caaaaaaaaaaacc"
               id="path2708"
               d="m -235.22609,203.22439 c 0.62899,-0.42173 1.24488,-0.35965 1.53118,-0.87263 0.75817,-1.35845 -0.26762,-3.11218 -0.16192,-4.66429 0.0534,-0.7847 -0.10071,-1.71938 0.40081,-2.32525 0.63585,-0.76814 1.93197,-0.56125 2.80121,-1.04988 1.07715,-0.60551 2.3771,-1.17718 2.91566,-2.28932 0.25292,-0.52228 0.17945,-1.19088 -0.006,-1.74089 -0.24603,-0.73133 -0.65504,-1.62398 -1.39322,-1.8486 -1.45935,-0.44407 -2.94825,0.8401 -4.32308,1.50095 -1.28593,0.61812 -2.44798,1.47005 -3.62203,2.28079 -0.40496,0.27965 -0.94268,0.45757 -1.17825,0.88966 -0.58717,1.07706 -0.36906,2.44709 -0.27279,3.67002 0.10536,1.33832 0.75501,2.8559 0.92328,3.92011 -0.14391,2.94119 -1.52541,4.53993 2.38515,2.52933 z"
               style="fill:#ffffff;fill-opacity:1;stroke:#ffffff;stroke-width:8.55819;stroke-linecap:round;stroke-linejoin:round;stroke-miterlimit:4;stroke-dasharray:none;stroke-opacity:1" />
            <path
               sodipodi:nodetypes="aaaaaaaaaaa"
               d="m -308.29615,116.47856 c 1.09461,-0.88587 2.59258,-0.72935 3.83351,-0.70137 0.5406,0.0122 1.24268,-0.0444 1.50515,0.37714 0.48784,0.7835 -0.37855,2.07516 -0.43349,3.09586 -0.0539,1.00211 0.34648,1.9341 0.10319,2.95048 -0.0774,0.32351 -0.20006,0.70875 -0.47996,0.92873 -0.85476,0.67179 -2.00267,0.65522 -2.9644,0.64562 -0.58253,-0.006 -1.15487,-0.14357 -1.60816,-0.42503 -0.43705,-0.27138 -0.80557,-0.67473 -0.98983,-1.16762 -0.33838,-0.90516 -0.34441,-2.01015 -0.13144,-3.06972 0.18097,-0.90037 0.39458,-2.01024 1.16543,-2.63409 z"
               transform="matrix(0.95682348,-0.29066963,0.49418524,0.86935663,0,0)"
               style="opacity:1;fill:#ffffff;fill-opacity:1;stroke:#ffffff;stroke-width:8.66515;stroke-linecap:round;stroke-linejoin:round;stroke-miterlimit:4;stroke-dasharray:none;stroke-opacity:1"
               id="path2710" />
          </g>
        </g>
        <path
           sodipodi:nodetypes="casccacac"
           id="path2716"
           d="m -199.05992,162.0439 c 0,0 0.8531,2.82876 1.14509,4.27472 0.49581,2.45534 1.0529,5.70355 1.02465,7.44454 -0.0139,0.85496 -2.0034,1.463 -2.0034,1.463 l -12.31277,-2.52766 c 0,0 -0.22616,-3.18698 -0.50371,-4.75725 -0.16024,-0.90659 -0.66833,-2.67984 -0.66833,-2.67984 0,0 4.53047,-1.98426 6.92558,-2.54137 2.08713,-0.48546 6.39289,-0.67614 6.39289,-0.67614 z"
           style="fill:#ffffff;fill-opacity:1;stroke:#ffffff;stroke-width:10;stroke-linecap:round;stroke-linejoin:round;stroke-miterlimit:4;stroke-dasharray:none;stroke-opacity:1" />
        <g
           style="fill:#ffffff;stroke:#ffffff;stroke-width:8.55819;stroke-linecap:round;stroke-linejoin:round;stroke-miterlimit:4;stroke-dasharray:none;stroke-opacity:1"
           transform="matrix(-1.168471,0,0,1.168471,-495.36382,-42.420146)"
           id="g2724">
          <circle
             transform="scale(-1,1)"
             r="7.461597"
             cy="188.99423"
             cx="249.17575"
             id="circle2718"
             style="opacity:1;fill:#ffffff;fill-opacity:1;stroke:#ffffff;stroke-width:8.55819;stroke-linecap:round;stroke-linejoin:round;stroke-miterlimit:4;stroke-dasharray:none;stroke-opacity:1" />
          <path
             d="m -249.09591,181.53264 a 7.4615968,7.4615968 0 0 1 7.30188,5.92832 7.4315417,15.846584 70.150236 0 0 -7.90753,1.7632 7.4315417,15.846584 70.150236 0 0 -6.13347,2.97347 7.4615968,7.4615968 0 0 1 -0.72244,-3.20291 7.4615968,7.4615968 0 0 1 7.46156,-7.46208 z"
             style="opacity:1;fill:#ffffff;fill-opacity:1;stroke:#ffffff;stroke-width:8.55819;stroke-linecap:round;stroke-linejoin:round;stroke-miterlimit:4;stroke-dasharray:none;stroke-opacity:1"
             id="path2720" />
          <circle
             style="opacity:1;fill:#ffffff;fill-opacity:1;stroke:#ffffff;stroke-width:8.55819;stroke-linecap:round;stroke-linejoin:round;stroke-miterlimit:4;stroke-dasharray:none;stroke-opacity:1"
             id="circle2722"
             cx="-243.85519"
             cy="186.88277"
             r="3.1368182" />
        </g>
        <path
           style="fill:#ffffff;fill-opacity:1;stroke:#ffffff;stroke-width:10;stroke-linecap:round;stroke-linejoin:round;stroke-miterlimit:4;stroke-dasharray:none;stroke-opacity:1"
           d="m -292.12927,162.0439 c 0,0 -1.0839,2.8416 -1.37345,4.32684 -0.47294,2.42592 -0.60382,5.65143 -0.57558,7.39242 0.0139,0.85496 1.55432,1.463 1.55432,1.463 l 12.60326,-2.52766 c 0,0 0.0681,-3.51881 0.287,-4.75725 0.21889,-1.23844 0.43855,-2.67984 0.43855,-2.67984 0,0 -4.42507,-1.98205 -6.76957,-2.54137 -2.01074,-0.47969 -6.16453,-0.67614 -6.16453,-0.67614 z"
           id="path2726"
           sodipodi:nodetypes="cascczcac" />
        <g
           style="fill:#ffffff;stroke:#ffffff;stroke-width:8.55819;stroke-linecap:round;stroke-linejoin:round;stroke-miterlimit:4;stroke-dasharray:none;stroke-opacity:1"
           transform="matrix(1.168471,0,0,1.168471,4.1671365,-45.059572)"
           id="g2734">
          <circle
             style="opacity:1;fill:#ffffff;fill-opacity:1;stroke:#ffffff;stroke-width:8.55819;stroke-linecap:round;stroke-linejoin:round;stroke-miterlimit:4;stroke-dasharray:none;stroke-opacity:1"
             id="circle2728"
             cx="249.17575"
             cy="188.99423"
             r="7.461597"
             transform="scale(-1,1)" />
          <path
             id="path2730"
             style="opacity:1;fill:#ffffff;fill-opacity:1;stroke:#ffffff;stroke-width:8.55819;stroke-linecap:round;stroke-linejoin:round;stroke-miterlimit:4;stroke-dasharray:none;stroke-opacity:1"
             d="m -249.09591,181.53264 a 7.4615968,7.4615968 0 0 1 7.30188,5.92832 7.4315417,15.846584 70.150236 0 0 -7.90753,1.7632 7.4315417,15.846584 70.150236 0 0 -6.13347,2.97347 7.4615968,7.4615968 0 0 1 -0.72244,-3.20291 7.4615968,7.4615968 0 0 1 7.46156,-7.46208 z" />
          <circle
             r="3.1368182"
             cy="186.88277"
             cx="-243.85519"
             id="circle2732"
             style="opacity:1;fill:#ffffff;fill-opacity:1;stroke:#ffffff;stroke-width:8.55819;stroke-linecap:round;stroke-linejoin:round;stroke-miterlimit:4;stroke-dasharray:none;stroke-opacity:1" />
        </g>
        <path
           sodipodi:nodetypes="caac"
           id="path2736"
           d="m -298.17011,100.83402 c 0,0 -3.38238,3.7452 -5.43709,5.17156 -1.00342,0.69656 -2.36192,0.81576 -3.29446,1.60469 -3.99789,3.38215 -9.12467,12.78823 -9.12467,12.78823"
           style="fill:#ffffff;stroke:#ffffff;stroke-width:10;stroke-linecap:round;stroke-linejoin:round;stroke-miterlimit:4;stroke-dasharray:none;stroke-opacity:1" />
        <path
           sodipodi:nodetypes="sssssssscscccccssssssss"
           d="m -243.39773,47.56584 c -2.20302,-0.0048 -4.40381,0.08863 -6.58591,0.26689 -7.45786,0.609267 -14.90676,2.319699 -21.87173,5.054612 -3.26631,1.282575 -6.55064,2.86236 -9.12981,5.241798 -1.23261,1.137163 -1.77326,2.859943 -2.84763,4.147665 -2.64053,3.164909 -6.28702,5.426371 -8.77419,8.713184 -2.85004,3.76641 -5.44245,7.888974 -6.87634,12.389275 -0.41071,1.288975 -0.72872,2.710537 -0.44623,4.033538 0.30725,1.438808 2.23477,3.806505 2.23477,3.806505 0,0 -1.3415,7.369149 -0.93895,11.040933 0.14867,1.35601 0.10224,3.40666 0.44608,4.05493 0.005,0.61507 0.32076,1.29323 0.34756,1.90776 14.16484,-9.005019 33.30471,-14.213303 52.69129,-14.21335 19.38658,4.7e-5 36.90814,4.293804 51.07298,13.29882 l 3.88587,3.33231 c 0,0 -0.63187,-4.72747 -0.6328,-7.10521 -0.001,-3.30468 1.70678,-7.041423 0.87192,-9.875538 -4.16423,-14.136307 -3.37117,-16.831478 -8.34243,-24.585908 -1.69372,-2.641956 -5.49942,-3.917072 -8.12869,-6.031598 -2.97435,-2.392063 -5.46792,-5.390106 -8.63649,-7.518213 -1.59019,-1.068021 -3.39521,-1.778017 -5.1325,-2.584972 -2.89805,-1.346117 -5.7096,-3.020965 -8.81825,-3.760615 -4.68582,-1.114917 -9.5419,-1.602252 -14.38852,-1.612816 z"
           style="opacity:1;fill:#ffffff;fill-opacity:0.996078;stroke:#ffffff;stroke-width:10;stroke-linecap:round;stroke-linejoin:round;stroke-miterlimit:4;stroke-dasharray:none;stroke-opacity:1"
           id="path2738" />
        <path
           sodipodi:nodetypes="caaac"
           id="path2740"
           d="m -286.65526,128.38193 c 1.28969,1.56741 3.58354,4.14128 6.03694,5.10133 9.03615,3.53598 19.38679,1.70422 29.0814,1.29202 8.31942,-0.35373 16.47418,-2.52743 24.772,-3.22314 8.31479,-0.69713 16.67594,-0.63248 25.01392,-0.94871"
           style="fill:#ffffff;stroke:#ffffff;stroke-width:10;stroke-linecap:round;stroke-linejoin:round;stroke-miterlimit:4;stroke-dasharray:none;stroke-opacity:1" />
        <path
           sodipodi:nodetypes="caaac"
           id="path2742"
           d="m -269.37202,139.78548 c 0,0 11.75615,-0.0784 17.60729,-0.57569 6.11605,-0.51984 12.15088,-1.7552 18.24202,-2.51304 6.28214,-0.78162 12.60937,-1.19682 18.87556,-2.09744 4.4354,-0.63749 13.23802,-2.33831 13.23802,-2.33831"
           style="fill:#ffffff;stroke:#ffffff;stroke-width:10;stroke-linecap:round;stroke-linejoin:round;stroke-miterlimit:4;stroke-dasharray:none;stroke-opacity:1" />
        <path
           sodipodi:nodetypes="caaaaaaac"
           id="path2744"
           d="m -286.34565,123.08513 c 0,0 6.49907,5.51751 10.47209,6.68788 2.93845,0.8656 6.16599,0.53262 9.18978,0.0423 6.23663,-1.0113 11.74245,-4.92373 17.95527,-6.07229 3.41287,-0.63094 6.95451,-0.79439 10.40399,-0.41113 4.31373,0.47928 8.30951,2.58504 12.58048,3.35751 4.14446,0.74958 8.57304,2.53495 12.57564,1.22437 2.65975,-0.87089 4.03445,-3.89775 6.25704,-5.59858 1.1059,-0.84629 3.50256,-2.27709 3.50256,-2.27709"
           style="fill:#ffffff;stroke:#ffffff;stroke-width:10;stroke-linecap:round;stroke-linejoin:round;stroke-miterlimit:4;stroke-dasharray:none;stroke-opacity:1" />
        <path
           sodipodi:nodetypes="cac"
           id="path2746"
           d="m -294.75302,104.64875 c 0.78352,-0.50583 3.81453,-5.201784 6.00235,-7.561908 1.91927,-2.070414 6.21629,-5.752371 6.21629,-5.752371"
           style="fill:#ffffff;stroke:#ffffff;stroke-width:10;stroke-linecap:round;stroke-linejoin:round;stroke-miterlimit:4;stroke-dasharray:none;stroke-opacity:1" />
        <path
           sodipodi:nodetypes="cac"
           id="path2748"
           d="m -295.17326,100.02541 c 0,0 2.15612,-5.688798 3.68735,-8.300635 1.16162,-1.981364 4.12856,-5.516456 4.12856,-5.516456"
           style="fill:#ffffff;stroke:#ffffff;stroke-width:10;stroke-linecap:round;stroke-linejoin:round;stroke-miterlimit:4;stroke-dasharray:none;stroke-opacity:1" />
        <path
           sodipodi:nodetypes="cac"
           id="path2750"
           d="m -318.87328,126.35793 c 0.60358,-0.30514 6.06721,-6.52085 9.4574,-9.39262 3.27844,-2.77709 10.46336,-7.52738 10.46336,-7.52738"
           style="fill:#ffffff;stroke:#ffffff;stroke-width:10;stroke-linecap:round;stroke-linejoin:round;stroke-miterlimit:4;stroke-dasharray:none;stroke-opacity:1" />
        <path
           sodipodi:nodetypes="cac"
           id="path2752"
           d="m -191.77171,105.92339 c 0,0 -3.44799,-4.25176 -5.38787,-6.175063 -1.98291,-1.965964 -6.35905,-5.452986 -6.35905,-5.452986"
           style="fill:#ffffff;stroke:#ffffff;stroke-width:10;stroke-linecap:round;stroke-linejoin:round;stroke-miterlimit:4;stroke-dasharray:none;stroke-opacity:1" />
        <path
           sodipodi:nodetypes="cac"
           id="path2754"
           d="m -198.1202,87.912242 c 0,0 2.27346,3.002327 3.07377,4.69217 1.39659,2.948882 2.9364,9.337808 2.9364,9.337808"
           style="fill:#ffffff;stroke:#ffffff;stroke-width:10;stroke-linecap:round;stroke-linejoin:round;stroke-miterlimit:4;stroke-dasharray:none;stroke-opacity:1" />
      </g>
      <g
         transform="matrix(0.41218591,0,0,0.41218591,-337.56115,-876.02068)"
         id="g2880">
        <path
           sodipodi:nodetypes="caccacccc"
           id="path2758"
           d="m -297.96941,95.904712 c 0,0 -8.95504,3.056825 -12.18333,6.292628 -4.05474,4.06413 -7.86805,15.32045 -7.86805,15.32045 l -4.41271,17.13075 c 0,0 2.63829,-4.06257 4.36114,-5.73622 4.65267,-4.51978 15.82565,-11.32386 15.82565,-11.32386 l 7.24814,-4.50933 0.0324,-18.189037 z"
           style="opacity:1;fill:#2f2a2e;fill-opacity:1;stroke:#1a1a1a;stroke-width:0.309158;stroke-linecap:round;stroke-linejoin:round;stroke-miterlimit:4;stroke-dasharray:none;stroke-opacity:1" />
        <g
           id="g2766"
           transform="matrix(0.53244208,1.0401105,-1.0401105,0.53244208,42.688854,229.53645)">
          <path
             d="m -158.98588,131.06476 v 0.81655 h -0.18016 v 24.86192 h 0.18016 v 0.81655 h 4.39766 v -0.81655 h 0.18048 v -24.86192 h -0.18048 v -0.81655 z"
             style="fill:#7b7a8a;fill-opacity:0.996078;stroke:none;stroke-width:0.159153;stroke-linecap:round;stroke-linejoin:round;stroke-miterlimit:4;stroke-dasharray:none;stroke-opacity:1"
             id="path2760" />
          <path
             d="m -159.20459,131.70647 v 26.20236 h 4.83508 v -26.20236 z m 2.42084,1.26619 2.33153,1.55822 -2.33153,1.5579 -2.33153,-1.5579 z m 0,3.52941 2.33153,1.55821 -2.33153,1.55791 -2.33153,-1.55791 z m 0,3.52941 2.33153,1.55821 -2.33153,1.55822 -2.33153,-1.55822 z m 0,3.52941 2.33153,1.55822 -2.33153,1.55822 -2.33153,-1.55822 z m 0,3.52973 2.33153,1.5579 -2.33153,1.55822 -2.33153,-1.55822 z m 0,3.5294 2.33153,1.55791 -2.33153,1.55822 -2.33153,-1.55822 z m 0,3.52941 2.33153,1.55822 -2.33153,1.55791 -2.33153,-1.55791 z"
             style="fill:#1a1a1a;fill-opacity:1;stroke:none;stroke-width:0.165956;stroke-linecap:round;stroke-linejoin:round;stroke-miterlimit:4;stroke-dasharray:none;stroke-opacity:1"
             id="path2762" />
          <path
             sodipodi:nodetypes="ccaaaacc"
             d="m -159.47185,157.90883 h 5.36748 c 0,0 0.12858,26.83377 0.007,40.24438 -0.10437,11.51263 0.24912,23.07907 -0.63202,34.50482 -0.16548,2.14579 -0.29529,4.37161 -0.87017,6.3425 -0.34203,1.17255 -0.75563,2.48493 -1.48758,3.10123 -0.69908,0.58861 -2.38453,0.24214 -2.38453,0.24214 z"
             style="fill:#222222;fill-opacity:1;stroke:none;stroke-width:0.345219;stroke-linecap:round;stroke-linejoin:round;stroke-miterlimit:4;stroke-dasharray:none;stroke-opacity:1"
             id="path2764" />
        </g>
        <path
           style="opacity:1;fill:#2f2a2e;fill-opacity:1;stroke:#1a1a1a;stroke-width:0.309158;stroke-linecap:round;stroke-linejoin:round;stroke-miterlimit:4;stroke-dasharray:none;stroke-opacity:1"
           d="m -296.34544,108.83829 c 0,0 -6.71806,8.87992 -8.16101,14.12169 -1.5303,5.5591 -1.63715,11.70488 -0.2289,17.29615 0.59428,2.35953 1.13986,5.99797 3.5425,6.38245 2.03263,0.32525 3.12924,-2.68834 4.5322,-4.19467 1.87384,-2.0119 5.15879,-6.43571 5.15879,-6.43571 l 4.8466,-7.62627 -5.82685,-17.23051 z"
           id="path2768"
           sodipodi:nodetypes="caaaacccc" />
        <circle
           r="52.055592"
           cy="105.75557"
           cx="-245.14919"
           id="circle2770"
           style="opacity:1;fill:#fbd8b0;fill-opacity:0.996078;stroke-width:21.6642;stroke-linecap:round;stroke-linejoin:round" />
        <ellipse
           transform="matrix(0.94806586,0.31807409,-0.40176231,0.91574398,0,0)"
           ry="17.118944"
           rx="14.258544"
           cy="185.54855"
           cx="-195.23184"
           id="ellipse2772"
           style="opacity:1;fill:#ffffff;fill-opacity:0.996078;stroke-width:24.2847;stroke-linecap:round;stroke-linejoin:round" />
        <circle
           transform="rotate(11.8429)"
           r="1.8400347"
           cy="159.37636"
           cx="-224.88632"
           id="circle2774"
           style="fill:#000000;fill-opacity:0.996078;stroke-width:38.6314;stroke-linecap:round;stroke-linejoin:round" />
        <ellipse
           style="opacity:1;fill:#ffffff;fill-opacity:0.996078;stroke-width:24.2847;stroke-linecap:round;stroke-linejoin:round"
           id="ellipse2776"
           cx="254.27579"
           cy="29.416786"
           rx="14.258544"
           ry="17.118944"
           transform="matrix(-0.94806586,0.31807409,0.40176231,0.91574398,0,0)" />
        <circle
           style="fill:#000000;fill-opacity:0.996078;stroke-width:38.6314;stroke-linecap:round;stroke-linejoin:round"
           id="circle2778"
           cx="-208.40826"
           cy="155.92105"
           r="1.8400347"
           transform="rotate(11.8429)" />
        <rect
           y="184.88315"
           x="-244.54706"
           height="15.527458"
           width="36.409893"
           id="rect2780"
           style="opacity:1;fill:#2e292e;fill-opacity:1;stroke:#1a1a1a;stroke-width:0.309158;stroke-linecap:round;stroke-linejoin:round;stroke-miterlimit:4;stroke-dasharray:none;stroke-opacity:1" />
        <rect
           style="opacity:1;fill:#2e292e;fill-opacity:1;stroke:#1a1a1a;stroke-width:0.309158;stroke-linecap:round;stroke-linejoin:round;stroke-miterlimit:4;stroke-dasharray:none;stroke-opacity:1"
           id="rect2782"
           width="36.409893"
           height="15.527458"
           x="-280.95694"
           y="184.88315" />
        <path
           style="opacity:1;fill:#2e292e;fill-opacity:1;stroke:#1a1a1a;stroke-width:0.309158;stroke-linecap:butt;stroke-linejoin:miter;stroke-miterlimit:4;stroke-dasharray:none;stroke-opacity:1"
           d="m -204.36298,150.19883 c 0,0 4.00111,7.47992 5.31743,11.48948 1.21576,3.70326 2.03759,7.57138 2.3341,11.4578 0.15491,2.03041 -0.29721,6.1017 -0.29721,6.1017 l -95.72899,-2.27722 c 0,0 -1.4234,-4.54088 -1.39557,-6.88112 0.0332,-2.79249 0.98797,-5.51594 1.86009,-8.16896 1.58615,-4.82515 6.09216,-13.96664 6.09216,-13.96664 l 40.77963,-2.7352 z"
           id="path2784"
           sodipodi:nodetypes="caaccaaccc" />
        <path
           style="opacity:1;fill:#2e292e;fill-opacity:1;stroke:#1a1a1a;stroke-width:0.309158;stroke-linecap:butt;stroke-linejoin:miter;stroke-miterlimit:4;stroke-dasharray:none;stroke-opacity:1"
           d="m -285.35513,186.07978 c 0,0 19.60259,4.77222 40.60043,5.10736 16.81665,0.26841 37.32649,-4.70834 37.32649,-4.70834 l -3.90236,-13.7803 c 0,0 -0.29595,-4.2409 -0.84202,-6.28175 -0.62669,-2.34222 -2.76297,-6.72862 -2.76297,-6.72862 l -61.94375,-1.02941 c 0,0 -1.68146,4.51392 -2.19294,6.85922 -0.46282,2.12214 -0.78014,6.4692 -0.78014,6.4692 0,0 -4.02337,5.6341 -5.03738,8.88374 -0.51926,1.66408 -0.46536,5.2089 -0.46536,5.2089 z"
           id="path2786"
           sodipodi:nodetypes="csccaccacac" />
        <path
           style="opacity:1;fill:#00ea90;fill-opacity:1;stroke:#1a1a1a;stroke-width:0.309158;stroke-linecap:butt;stroke-linejoin:miter;stroke-miterlimit:4;stroke-dasharray:none;stroke-opacity:1"
           d="m -278.81082,176.42455 c 0,0 9.11371,0.96111 13.68896,1.14334 6.65363,0.265 13.32024,0.10983 19.9766,-0.0742 8.39365,-0.23208 16.7806,-0.71405 25.1571,-1.29854 3.3026,-0.23044 9.89367,-0.87045 9.89367,-0.87045 l 0.44151,6.07134 c 0,0 -9.38621,1.09326 -14.08789,1.5579 -3.87609,0.38305 -7.75357,0.76901 -11.64084,1.01382 -3.12951,0.1971 -6.26443,0.33569 -9.39999,0.36605 -4.94939,0.0479 -9.89943,-0.11727 -14.84601,-0.29043 -6.97489,-0.24418 -14.04761,0.21135 -20.91087,-1.05535 -1.00247,-0.18502 -2.90809,-0.94629 -2.90809,-0.94629 z"
           id="path2788"
           sodipodi:nodetypes="caaaccaaaaacc" />
        <path
           style="opacity:1;fill:#333333;fill-opacity:1;stroke:none;stroke-width:0.0309158;stroke-linecap:round;stroke-linejoin:round;stroke-miterlimit:4;stroke-dasharray:none;stroke-opacity:1"
           d="m -244.0345,166.34868 0.24596,5.79787 c 0,0 5.10149,1.02193 7.68518,1.29011 4.69964,0.48782 10.92636,1.02652 14.163,0.57445 2.78079,-0.38841 6.04988,-1.63794 7.21964,-2.37647 0.57662,-0.36405 -0.15519,-5.57141 -0.15519,-5.57141 l -26.77433,-4.52538 z"
           id="path2790"
           sodipodi:nodetypes="ccassccc" />
        <path
           sodipodi:nodetypes="ccassccc"
           id="path2792"
           d="m -246.92644,166.34868 -0.24596,5.79787 c 0,0 -5.10148,1.02193 -7.68517,1.29011 -4.69963,0.48782 -10.92636,1.02652 -14.163,0.57445 -2.78078,-0.38841 -6.04987,-1.63794 -7.21964,-2.37647 -0.57662,-0.36405 0.1552,-5.57141 0.1552,-5.57141 l 26.77433,-4.52538 z"
           style="opacity:1;fill:#333333;fill-opacity:1;stroke:none;stroke-width:0.0309158;stroke-linecap:round;stroke-linejoin:round;stroke-miterlimit:4;stroke-dasharray:none;stroke-opacity:1" />
        <path
           id="path2794"
           style="opacity:1;fill:#222222;fill-opacity:1;stroke:#1a1a1a;stroke-width:0.309158;stroke-linecap:butt;stroke-linejoin:miter;stroke-miterlimit:4;stroke-dasharray:none;stroke-opacity:1"
           d="m -282.01833,141.5559 c 0,0 -1.18941,0.47131 -2.91466,1.82838 -1.4998,1.17978 -3.70446,3.18733 -3.42307,4.58786 1.48743,2.32997 2.69499,3.21263 4.26541,5.82026 3.01215,4.26869 5.26787,9.07286 8.56223,13.12774 1.64297,2.02732 5.48185,6.11587 7.30265,5.27259 6.4318,-3.8804 14.65434,-5.8701 23.13189,-5.82208 8.47757,-0.048 16.70009,1.94168 23.1319,5.82208 1.8208,0.84328 5.65969,-3.24529 7.30265,-5.27259 3.29437,-4.05488 5.55007,-8.85905 8.56222,-13.12774 1.57043,-2.60763 2.77798,-3.49029 4.26542,-5.82026 0.28141,-1.40053 -1.92327,-3.40809 -3.42308,-4.58786 -1.72525,-1.35707 -2.91466,-1.82838 -2.91466,-1.82838 l -36.92445,0.8701 z" />
        <circle
           style="opacity:1;fill:#999999;fill-opacity:0.996078;stroke:none;stroke-width:0.0350322;stroke-linecap:round;stroke-linejoin:round;stroke-miterlimit:4;stroke-dasharray:none"
           id="circle2796"
           cx="-241.03641"
           cy="168.6562"
           r="1.4062673" />
        <path
           d="m -279.35229,142.666 c 0,0 -1.97345,0.20413 -3.57413,1.46321 -1.39152,1.0946 -3.51563,2.52526 -3.25455,3.82466 1.38004,2.16172 3.44895,3.64576 4.90598,6.06512 2.79466,3.96048 4.47641,8.47708 7.53291,12.23918 1.33903,1.91124 3.91862,4.96224 5.60794,4.17985 5.96743,-3.60023 14.93251,-5.98069 22.79795,-5.93614 7.86547,-0.0445 16.764,1.67111 23.38619,5.85453 1.68933,0.7824 3.78312,-2.01047 5.30746,-3.89141 3.0565,-3.7621 5.2579,-8.13045 8.05258,-12.09094 1.45703,-2.41935 3.25293,-5.00671 4.63298,-7.16844 0.26108,-1.29939 -2.28327,-2.50407 -3.6748,-3.59865 -1.60068,-1.25909 -3.20368,-0.94097 -3.20368,-0.94097 l -34.25842,0.80728 z"
           style="fill:#333333;fill-opacity:1;stroke:#1a1a1a;stroke-width:0.309158;stroke-linecap:butt;stroke-linejoin:miter;stroke-miterlimit:4;stroke-dasharray:none;stroke-opacity:1"
           id="path2798"
           sodipodi:nodetypes="cscccccccccsccc" />
        <path
           style="fill:none;stroke:#1a1a1a;stroke-width:0.309158;stroke-linecap:round;stroke-linejoin:round;stroke-miterlimit:4;stroke-dasharray:none;stroke-opacity:1"
           d="m -297.2397,114.1737 c 0,0 -2.74766,7.27036 -3.61732,11.04586 -0.87453,3.79663 -2.99686,7.9472 -1.58833,11.57972 0.23925,0.61699 0.86398,1.29741 1.5252,1.27082 1.17306,-0.0472 1.95553,-1.43304 2.51602,-2.46461 1.1407,-2.09937 0.41162,-4.86022 1.42206,-7.02529 1.05181,-2.2537 4.65429,-5.83156 4.65429,-5.83156"
           id="path2800"
           sodipodi:nodetypes="caaaaac" />
        <path
           style="opacity:1;fill:#2e292e;fill-opacity:1;stroke:#1a1a1a;stroke-width:0.309158;stroke-linecap:butt;stroke-linejoin:miter;stroke-miterlimit:4;stroke-dasharray:none;stroke-opacity:1"
           d="m -297.40858,106.17904 c 0,0 6.38374,5.28496 9.9057,7.4417 3.79064,2.32127 7.71079,4.61921 11.98025,5.85565 3.36212,0.97368 6.94164,1.30215 10.43834,1.14388 4.77372,-0.21608 9.35728,-1.94677 14.05114,-2.84267 2.36457,-0.45132 4.70441,-1.14631 7.10817,-1.27572 2.13945,-0.11522 4.28946,0.1567 6.41189,0.44961 4.23749,0.58481 8.29451,2.37632 12.56614,2.60328 4.4654,0.23726 9.01,-0.23923 13.35061,-1.31405 3.27762,-0.81159 6.35969,-2.31539 9.3793,-3.82649 2.46716,-1.23463 5.33792,-2.13371 7.09621,-4.25965 0.64411,-0.7788 1.04499,-2.84618 1.04499,-2.84618 l 3.88587,3.3323 c 0,0 -3.32951,9.24743 -5.49928,13.64518 -3.84323,7.7896 -12.19888,21.89111 -13.25347,22.43615 -2.08556,1.07785 -11.19588,4.39837 -17.01127,5.86869 -9.01661,2.27971 -18.26715,5.35548 -27.53079,4.5301 -8.38749,-0.74732 -16.42235,-4.40123 -23.80916,-8.44396 -4.47768,-2.4506 -10.0404,-5.15089 -12.09068,-9.3974 -1.42016,-2.94142 -3.63289,-7.99235 -4.991,-12.15707 -1.62681,-4.98874 -3.45694,-10.04857 -3.75545,-15.28736 -0.10808,-1.89758 0.72248,-5.65599 0.72249,-5.65599 z"
           id="path2802"
           sodipodi:nodetypes="caaaaaaaaaaccasaaasaac" />
        <circle
           r="1.4062673"
           cy="168.6562"
           cx="-249.76353"
           id="circle2804"
           style="opacity:1;fill:#999999;fill-opacity:0.996078;stroke:none;stroke-width:0.0350322;stroke-linecap:round;stroke-linejoin:round;stroke-miterlimit:4;stroke-dasharray:none" />
        <g
           id="g2814"
           style="stroke:#1a1a1a"
           transform="matrix(1.168471,0,0,1.168471,4.1671365,-45.059572)">
          <path
             sodipodi:nodetypes="ccasc"
             id="path2806"
             d="m -217.17342,182.95188 3.68232,0.47732 c 0,0 -1.47686,1.46981 -2.16615,2.25004 -0.75055,0.84958 -1.80364,1.56036 -2.14051,2.64278 -0.30859,0.99158 -0.38198,3.08772 -0.38198,3.08772"
             style="fill:none;stroke:#1a1a1a;stroke-width:1.05833;stroke-linecap:round;stroke-linejoin:round;stroke-miterlimit:4;stroke-dasharray:none;stroke-opacity:1" />
          <path
             sodipodi:nodetypes="caac"
             id="path2808"
             d="m -213.4911,183.4292 c 0,0 -1.08456,1.66101 -1.37688,2.59584 -0.3151,1.00769 -0.3356,2.09014 -0.37429,3.14525 -0.0231,0.62888 0.0852,1.88597 0.0852,1.88597"
             style="fill:none;stroke:#1a1a1a;stroke-width:1.05833;stroke-linecap:round;stroke-linejoin:round;stroke-miterlimit:4;stroke-dasharray:none;stroke-opacity:1" />
          <path
             sodipodi:nodetypes="ccaac"
             id="path2810"
             d="m -210.00035,182.91316 -3.49075,0.51604 c 0,0 1.90789,0.72749 2.61958,1.42042 0.62603,0.60953 1.00867,1.45018 1.31056,2.27012 0.41748,1.13388 0.65611,3.565 0.65611,3.565"
             style="fill:none;stroke:#1a1a1a;stroke-width:1.05833;stroke-linecap:round;stroke-linejoin:round;stroke-miterlimit:4;stroke-dasharray:none;stroke-opacity:1" />
          <path
             sodipodi:nodetypes="caac"
             id="path2812"
             d="m -213.4911,183.4292 c 0,0 1.05969,1.5628 1.28586,2.45999 0.24638,0.97736 0.0263,2.0157 0.037,3.02358 0.008,0.75515 0.0205,2.2655 0.0205,2.2655"
             style="fill:none;stroke:#1a1a1a;stroke-width:1.05833;stroke-linecap:round;stroke-linejoin:round;stroke-miterlimit:4;stroke-dasharray:none;stroke-opacity:1" />
        </g>
        <path
           style="fill:#111111;fill-opacity:1;stroke:#111111;stroke-width:0.309645;stroke-linecap:round;stroke-linejoin:round;stroke-miterlimit:4;stroke-dasharray:none;stroke-opacity:1"
           d="m -288.59728,201.0176 47.25001,-0.16192 c 0,0 -7.87894,-5.13423 -23.86375,-5.06901 -16.98311,0.0693 -23.38626,5.23093 -23.38626,5.23093 z"
           id="path2816"
           sodipodi:nodetypes="ccsc" />
        <path
           sodipodi:nodetypes="ccsc"
           id="path2818"
           d="m -248.32091,200.75518 47.23659,1.13767 c 0,0 -7.74786,-4.77522 -23.7284,-5.15085 -16.97855,-0.39908 -23.50819,4.01309 -23.50819,4.01309 z"
           style="fill:#111111;fill-opacity:1;stroke:#111111;stroke-width:0.291921;stroke-linecap:round;stroke-linejoin:round;stroke-miterlimit:4;stroke-dasharray:none;stroke-opacity:1" />
        <g
           id="g2838"
           transform="matrix(1.168471,0,0,1.168471,4.1909675,-45.044978)"
           style="stroke:#1a1a1a;stroke-opacity:1">
          <g
             id="g2828"
             style="stroke:#1a1a1a;stroke-opacity:1">
            <path
               style="fill:none;stroke:#1a1a1a;stroke-width:0.264583;stroke-linecap:round;stroke-linejoin:round;stroke-miterlimit:4;stroke-dasharray:none;stroke-opacity:1"
               d="m -244.32939,193.49001 c 0,0 1.38556,0.29059 2.08957,0.3354 0.85876,0.0546 2.58018,-0.0827 2.58018,-0.0827"
               id="path2820"
               sodipodi:nodetypes="cac" />
            <path
               style="fill:none;stroke:#1a1a1a;stroke-width:0.264583px;stroke-linecap:butt;stroke-linejoin:miter;stroke-opacity:1"
               d="m -243.04283,190.87885 c 0,0 1.88607,0.54253 2.85729,0.63714 1.64901,0.16064 4.96887,-0.12517 4.96887,-0.12517"
               id="path2822"
               sodipodi:nodetypes="cac" />
            <path
               style="fill:none;stroke:#1a1a1a;stroke-width:0.264583px;stroke-linecap:round;stroke-linejoin:round;stroke-opacity:1"
               d="m -216.58611,193.99879 c 0,0 3.10927,0.38887 4.67141,0.3765 1.86283,-0.0148 5.56278,-0.53716 5.56278,-0.53716"
               id="path2824"
               sodipodi:nodetypes="cac" />
            <path
               style="fill:none;stroke:#1a1a1a;stroke-width:0.264583;stroke-linecap:round;stroke-linejoin:round;stroke-miterlimit:4;stroke-dasharray:none;stroke-opacity:1"
               d="m -221.44721,192.4783 c 0.32873,-0.083 11.86091,-0.60572 17.79644,-0.60101 4.12313,0.003 8.24133,0.58889 12.36166,0.4371 2.7737,-0.10219 8.27734,-0.90574 8.27734,-0.90574"
               id="path2826"
               sodipodi:nodetypes="caac" />
          </g>
          <g
             id="g2836"
             style="stroke:#1a1a1a;stroke-opacity:1">
            <path
               style="fill:#00ea90;fill-opacity:1;stroke:#1a1a1a;stroke-width:0.264583;stroke-linecap:round;stroke-linejoin:round;stroke-miterlimit:4;stroke-dasharray:none;stroke-opacity:1"
               d="m -227.71655,191.652 c 1.14821,1.18474 1.51937,2.95287 1.97413,4.5388 0.69587,2.42677 1.52523,6.75047 1.11868,7.49062 -0.45987,0.8372 -4.23882,1.85111 -4.23882,1.85111 -0.9826,0.34902 -0.84915,-3.49671 -1.01806,-5.28171 -0.1297,-1.37075 0.31632,-2.78889 0.007,-4.1306 -0.28369,-1.23118 -1.6646,-3.40523 -1.6646,-3.40523 0,0 0.71615,-2.48225 0.81911,-2.48225 0.10295,0 2.232,0.62434 3.00241,1.41926 z"
               id="path2830"
               sodipodi:nodetypes="aassaacsa" />
            <path
               style="fill:#00ea90;fill-opacity:1;stroke:#1a1a1a;stroke-width:0.264583;stroke-linecap:round;stroke-linejoin:round;stroke-miterlimit:4;stroke-dasharray:none;stroke-opacity:1"
               d="m -235.22609,203.22439 c 0.62899,-0.42173 1.24488,-0.35965 1.53118,-0.87263 0.75817,-1.35845 -0.26762,-3.11218 -0.16192,-4.66429 0.0534,-0.7847 -0.10071,-1.71938 0.40081,-2.32525 0.63585,-0.76814 1.93197,-0.56125 2.80121,-1.04988 1.07715,-0.60551 2.3771,-1.17718 2.91566,-2.28932 0.25292,-0.52228 0.17945,-1.19088 -0.006,-1.74089 -0.24603,-0.73133 -0.65504,-1.62398 -1.39322,-1.8486 -1.45935,-0.44407 -2.94825,0.8401 -4.32308,1.50095 -1.28593,0.61812 -2.44798,1.47005 -3.62203,2.28079 -0.40496,0.27965 -0.94268,0.45757 -1.17825,0.88966 -0.58717,1.07706 -0.36906,2.44709 -0.27279,3.67002 0.10536,1.33832 0.75501,2.8559 0.92328,3.92011 -0.14391,2.94119 -1.52541,4.53993 2.38515,2.52933 z"
               id="path2832"
               sodipodi:nodetypes="caaaaaaaaaaacc" />
            <path
               id="path2834"
               style="opacity:1;fill:#00ea90;fill-opacity:1;stroke:#1a1a1a;stroke-width:0.26789;stroke-linecap:round;stroke-linejoin:round;stroke-miterlimit:4;stroke-dasharray:none;stroke-opacity:1"
               transform="matrix(0.95682348,-0.29066963,0.49418524,0.86935663,0,0)"
               d="m -308.29615,116.47856 c 1.09461,-0.88587 2.59258,-0.72935 3.83351,-0.70137 0.5406,0.0122 1.24268,-0.0444 1.50515,0.37714 0.48784,0.7835 -0.37855,2.07516 -0.43349,3.09586 -0.0539,1.00211 0.34648,1.9341 0.10319,2.95048 -0.0774,0.32351 -0.20006,0.70875 -0.47996,0.92873 -0.85476,0.67179 -2.00267,0.65522 -2.9644,0.64562 -0.58253,-0.006 -1.15487,-0.14357 -1.60816,-0.42503 -0.43705,-0.27138 -0.80557,-0.67473 -0.98983,-1.16762 -0.33838,-0.90516 -0.34441,-2.01015 -0.13144,-3.06972 0.18097,-0.90037 0.39458,-2.01024 1.16543,-2.63409 z"
               sodipodi:nodetypes="aaaaaaaaaaa" />
          </g>
        </g>
        <path
           style="fill:#333333;fill-opacity:1;stroke:none;stroke-width:0.309158px;stroke-linecap:butt;stroke-linejoin:miter;stroke-opacity:1"
           d="m -199.05992,162.0439 c 0,0 0.8531,2.82876 1.14509,4.27472 0.49581,2.45534 1.0529,5.70355 1.02465,7.44454 -0.0139,0.85496 -2.0034,1.463 -2.0034,1.463 l -12.31277,-2.52766 c 0,0 -0.22616,-3.18698 -0.50371,-4.75725 -0.16024,-0.90659 -0.66833,-2.67984 -0.66833,-2.67984 0,0 4.53047,-1.98426 6.92558,-2.54137 2.08713,-0.48546 6.39289,-0.67614 6.39289,-0.67614 z"
           id="path2840"
           sodipodi:nodetypes="casccacac" />
        <g
           id="g2848"
           transform="matrix(-1.168471,0,0,1.168471,-495.36382,-42.420146)"
           style="stroke:#1a1a1a;stroke-width:0.264583;stroke-miterlimit:4;stroke-dasharray:none;stroke-opacity:1">
          <circle
             style="opacity:1;fill:#fbd8b0;fill-opacity:1;stroke:#1a1a1a;stroke-width:0.264583;stroke-linecap:round;stroke-linejoin:round;stroke-miterlimit:4;stroke-dasharray:none;stroke-opacity:1"
             id="circle2842"
             cx="249.17575"
             cy="188.99423"
             r="7.461597"
             transform="scale(-1,1)" />
          <path
             id="path2844"
             style="opacity:1;fill:#2e292e;fill-opacity:1;stroke:#1a1a1a;stroke-width:0.264583;stroke-linecap:round;stroke-linejoin:round;stroke-miterlimit:4;stroke-dasharray:none;stroke-opacity:1"
             d="m -249.09591,181.53264 a 7.4615968,7.4615968 0 0 1 7.30188,5.92832 7.4315417,15.846584 70.150236 0 0 -7.90753,1.7632 7.4315417,15.846584 70.150236 0 0 -6.13347,2.97347 7.4615968,7.4615968 0 0 1 -0.72244,-3.20291 7.4615968,7.4615968 0 0 1 7.46156,-7.46208 z" />
          <circle
             r="3.1368182"
             cy="186.88277"
             cx="-243.85519"
             id="circle2846"
             style="opacity:1;fill:#fbd8b0;fill-opacity:1;stroke:#1a1a1a;stroke-width:0.264583;stroke-linecap:round;stroke-linejoin:round;stroke-miterlimit:4;stroke-dasharray:none;stroke-opacity:1" />
        </g>
        <path
           sodipodi:nodetypes="cascczcac"
           id="path2850"
           d="m -292.12927,162.0439 c 0,0 -1.0839,2.8416 -1.37345,4.32684 -0.47294,2.42592 -0.60382,5.65143 -0.57558,7.39242 0.0139,0.85496 1.55432,1.463 1.55432,1.463 l 12.60326,-2.52766 c 0,0 0.0681,-3.51881 0.287,-4.75725 0.21889,-1.23844 0.43855,-2.67984 0.43855,-2.67984 0,0 -4.42507,-1.98205 -6.76957,-2.54137 -2.01074,-0.47969 -6.16453,-0.67614 -6.16453,-0.67614 z"
           style="fill:#333333;fill-opacity:1;stroke:none;stroke-width:0.309158px;stroke-linecap:butt;stroke-linejoin:miter;stroke-opacity:1" />
        <g
           id="g2858"
           transform="matrix(1.168471,0,0,1.168471,4.1671365,-45.059572)"
           style="stroke:#1a1a1a;stroke-width:0.264583;stroke-miterlimit:4;stroke-dasharray:none;stroke-opacity:1">
          <circle
             transform="scale(-1,1)"
             r="7.461597"
             cy="188.99423"
             cx="249.17575"
             id="circle2852"
             style="opacity:1;fill:#fbd8b0;fill-opacity:1;stroke:#1a1a1a;stroke-width:0.264583;stroke-linecap:round;stroke-linejoin:round;stroke-miterlimit:4;stroke-dasharray:none;stroke-opacity:1" />
          <path
             d="m -249.09591,181.53264 a 7.4615968,7.4615968 0 0 1 7.30188,5.92832 7.4315417,15.846584 70.150236 0 0 -7.90753,1.7632 7.4315417,15.846584 70.150236 0 0 -6.13347,2.97347 7.4615968,7.4615968 0 0 1 -0.72244,-3.20291 7.4615968,7.4615968 0 0 1 7.46156,-7.46208 z"
             style="opacity:1;fill:#2e292e;fill-opacity:1;stroke:#1a1a1a;stroke-width:0.264583;stroke-linecap:round;stroke-linejoin:round;stroke-miterlimit:4;stroke-dasharray:none;stroke-opacity:1"
             id="path2854" />
          <circle
             style="opacity:1;fill:#fbd8b0;fill-opacity:1;stroke:#1a1a1a;stroke-width:0.264583;stroke-linecap:round;stroke-linejoin:round;stroke-miterlimit:4;stroke-dasharray:none;stroke-opacity:1"
             id="circle2856"
             cx="-243.85519"
             cy="186.88277"
             r="3.1368182" />
        </g>
        <path
           style="fill:none;stroke:#1a1a1a;stroke-width:0.309158;stroke-linecap:round;stroke-linejoin:round;stroke-miterlimit:4;stroke-dasharray:none;stroke-opacity:1"
           d="m -298.17011,100.83402 c 0,0 -3.38238,3.7452 -5.43709,5.17156 -1.00342,0.69656 -2.36192,0.81576 -3.29446,1.60469 -3.99789,3.38215 -9.12467,12.78823 -9.12467,12.78823"
           id="path2860"
           sodipodi:nodetypes="caac" />
        <path
           id="path2862"
           style="opacity:1;fill:#2e292e;fill-opacity:0.996078;stroke:#1a1a1a;stroke-width:0.309158;stroke-linecap:round;stroke-linejoin:round;stroke-miterlimit:4;stroke-dasharray:none;stroke-opacity:1"
           d="m -243.39773,47.56584 c -2.20302,-0.0048 -4.40381,0.08863 -6.58591,0.26689 -7.45786,0.609267 -14.90676,2.319699 -21.87173,5.054612 -3.26631,1.282575 -6.55064,2.86236 -9.12981,5.241798 -1.23261,1.137163 -1.77326,2.859943 -2.84763,4.147665 -2.64053,3.164909 -6.28702,5.426371 -8.77419,8.713184 -2.85004,3.76641 -5.44245,7.888974 -6.87634,12.389275 -0.41071,1.288975 -0.72872,2.710537 -0.44623,4.033538 0.30725,1.438808 2.23477,3.806505 2.23477,3.806505 0,0 -1.3415,7.369149 -0.93895,11.040933 0.14867,1.35601 0.10224,3.40666 0.44608,4.05493 0.005,0.61507 0.32076,1.29323 0.34756,1.90776 14.16484,-9.005019 33.30471,-14.213303 52.69129,-14.21335 19.38658,4.7e-5 36.90814,4.293804 51.07298,13.29882 l 3.88587,3.33231 c 0,0 -0.63187,-4.72747 -0.6328,-7.10521 -0.001,-3.30468 1.70678,-7.041423 0.87192,-9.875538 -4.16423,-14.136307 -3.37117,-16.831478 -8.34243,-24.585908 -1.69372,-2.641956 -5.49942,-3.917072 -8.12869,-6.031598 -2.97435,-2.392063 -5.46792,-5.390106 -8.63649,-7.518213 -1.59019,-1.068021 -3.39521,-1.778017 -5.1325,-2.584972 -2.89805,-1.346117 -5.7096,-3.020965 -8.81825,-3.760615 -4.68582,-1.114917 -9.5419,-1.602252 -14.38852,-1.612816 z"
           sodipodi:nodetypes="sssssssscscccccssssssss" />
        <path
           style="fill:none;stroke:#1a1a1a;stroke-width:0.309158;stroke-linecap:round;stroke-linejoin:round;stroke-miterlimit:4;stroke-dasharray:none;stroke-opacity:1"
           d="m -286.65526,128.38193 c 1.28969,1.56741 3.58354,4.14128 6.03694,5.10133 9.03615,3.53598 19.38679,1.70422 29.0814,1.29202 8.31942,-0.35373 16.47418,-2.52743 24.772,-3.22314 8.31479,-0.69713 16.67594,-0.63248 25.01392,-0.94871"
           id="path2864"
           sodipodi:nodetypes="caaac" />
        <path
           style="fill:none;stroke:#1a1a1a;stroke-width:0.309158;stroke-linecap:round;stroke-linejoin:round;stroke-miterlimit:4;stroke-dasharray:none;stroke-opacity:1"
           d="m -269.37202,139.78548 c 0,0 11.75615,-0.0784 17.60729,-0.57569 6.11605,-0.51984 12.15088,-1.7552 18.24202,-2.51304 6.28214,-0.78162 12.60937,-1.19682 18.87556,-2.09744 4.4354,-0.63749 13.23802,-2.33831 13.23802,-2.33831"
           id="path2866"
           sodipodi:nodetypes="caaac" />
        <path
           style="fill:none;stroke:#1a1a1a;stroke-width:0.309158;stroke-linecap:round;stroke-linejoin:round;stroke-miterlimit:4;stroke-dasharray:none;stroke-opacity:1"
           d="m -286.34565,123.08513 c 0,0 6.49907,5.51751 10.47209,6.68788 2.93845,0.8656 6.16599,0.53262 9.18978,0.0423 6.23663,-1.0113 11.74245,-4.92373 17.95527,-6.07229 3.41287,-0.63094 6.95451,-0.79439 10.40399,-0.41113 4.31373,0.47928 8.30951,2.58504 12.58048,3.35751 4.14446,0.74958 8.57304,2.53495 12.57564,1.22437 2.65975,-0.87089 4.03445,-3.89775 6.25704,-5.59858 1.1059,-0.84629 3.50256,-2.27709 3.50256,-2.27709"
           id="path2868"
           sodipodi:nodetypes="caaaaaaac" />
        <path
           style="fill:none;stroke:#1a1a1a;stroke-width:0.309158;stroke-linecap:round;stroke-linejoin:round;stroke-miterlimit:4;stroke-dasharray:none;stroke-opacity:1"
           d="m -294.75302,104.64875 c 0.78352,-0.50583 3.81453,-5.201784 6.00235,-7.561908 1.91927,-2.070414 6.21629,-5.752371 6.21629,-5.752371"
           id="path2870"
           sodipodi:nodetypes="cac" />
        <path
           style="fill:none;stroke:#1a1a1a;stroke-width:0.309158;stroke-linecap:round;stroke-linejoin:round;stroke-miterlimit:4;stroke-dasharray:none;stroke-opacity:1"
           d="m -295.17326,100.02541 c 0,0 2.15612,-5.688798 3.68735,-8.300635 1.16162,-1.981364 4.12856,-5.516456 4.12856,-5.516456"
           id="path2872"
           sodipodi:nodetypes="cac" />
        <path
           style="fill:none;stroke:#1a1a1a;stroke-width:0.309158;stroke-linecap:round;stroke-linejoin:round;stroke-miterlimit:4;stroke-dasharray:none;stroke-opacity:1"
           d="m -318.87328,126.35793 c 0.60358,-0.30514 6.06721,-6.52085 9.4574,-9.39262 3.27844,-2.77709 10.46336,-7.52738 10.46336,-7.52738"
           id="path2874"
           sodipodi:nodetypes="cac" />
        <path
           style="fill:none;stroke:#1a1a1a;stroke-width:0.309158;stroke-linecap:round;stroke-linejoin:round;stroke-miterlimit:4;stroke-dasharray:none;stroke-opacity:1"
           d="m -191.77171,105.92339 c 0,0 -3.44799,-4.25176 -5.38787,-6.175063 -1.98291,-1.965964 -6.35905,-5.452986 -6.35905,-5.452986"
           id="path2876"
           sodipodi:nodetypes="cac" />
        <path
           style="fill:none;stroke:#1a1a1a;stroke-width:0.309158;stroke-linecap:round;stroke-linejoin:round;stroke-miterlimit:4;stroke-dasharray:none;stroke-opacity:1"
           d="m -198.1202,87.912242 c 0,0 2.27346,3.002327 3.07377,4.69217 1.39659,2.948882 2.9364,9.337808 2.9364,9.337808"
           id="path2878"
           sodipodi:nodetypes="cac" />
      </g>
    </g>
  </g>
</svg>
